<svg width="55" height="62" viewBox="0 0 55 62" fill="none" xmlns="http://www.w3.org/2000/svg">
<path d="M11.1062 24.2129C7.67492 14.8827 12.4569 4.5375 21.7871 1.10622C31.1173 -2.32507 41.4625 2.45693 44.8938 11.7871C48.3251 21.1173 43.5431 31.4625 34.2129 34.8938C24.8827 38.3251 14.5375 33.5431 11.1062 24.2129Z" fill="black"/>
<path d="M13.9219 23.1774C11.0625 15.4023 15.0475 6.78125 22.8226 3.92185C30.5978 1.06244 39.2188 5.04744 42.0782 12.8226C44.9376 20.5977 40.9526 29.2187 33.1774 32.0782C25.4023 34.9376 16.7813 30.9526 13.9219 23.1774Z" fill="white"/>
<path d="M15.7989 22.4871C13.3207 15.7486 16.7744 8.27709 23.5128 5.79894C30.2513 3.32078 37.7228 6.77445 40.201 13.5129C42.6791 20.2514 39.2255 27.7229 32.487 30.2011C25.7486 32.6792 18.277 29.2256 15.7989 22.4871Z" fill="black"/>
<path d="M18.6145 21.4516C16.7083 16.2682 19.3649 10.5208 24.5484 8.61457C29.7318 6.7083 35.4791 9.36496 37.3854 14.5484C39.2917 19.7318 36.635 25.4792 31.4516 27.3854C26.2681 29.2917 20.5208 26.635 18.6145 21.4516Z" fill="white"/>
<path d="M20.4916 20.7613C18.9666 16.6145 21.092 12.0167 25.2387 10.4917C29.3855 8.96664 33.9833 11.092 35.5083 15.2387C37.0334 19.3855 34.908 23.9833 30.7613 25.5083C26.6145 27.0334 22.0167 24.908 20.4916 20.7613Z" fill="black"/>
<path d="M0.542725 61V43.48H3.37472L5.19872 49.144C5.37472 49.656 5.53473 50.168 5.67873 50.68C5.82273 51.176 5.92672 51.56 5.99072 51.832C6.07072 51.56 6.17473 51.176 6.30272 50.68C6.43072 50.168 6.57472 49.648 6.73472 49.12L8.46272 43.48H11.2947V61H9.18272V54.64C9.18272 53.936 9.20672 53.136 9.25472 52.24C9.30272 51.344 9.36672 50.432 9.44672 49.504C9.52672 48.56 9.60672 47.664 9.68672 46.816C9.78272 45.952 9.86272 45.2 9.92672 44.56L7.09472 53.32H4.81472L1.95872 44.56C2.03872 45.184 2.11872 45.912 2.19872 46.744C2.27872 47.56 2.35072 48.432 2.41472 49.36C2.47872 50.272 2.53472 51.184 2.58272 52.096C2.63072 53.008 2.65472 53.856 2.65472 54.64V61H0.542725Z" fill="black"/>
<path d="M20.3093 61.24C19.2693 61.24 18.3573 61.032 17.5733 60.616C16.8053 60.2 16.2053 59.616 15.7733 58.864C15.3573 58.096 15.1493 57.208 15.1493 56.2V52.6C15.1493 51.576 15.3573 50.688 15.7733 49.936C16.2053 49.184 16.8053 48.6 17.5733 48.184C18.3573 47.768 19.2693 47.56 20.3093 47.56C21.3493 47.56 22.2534 47.768 23.0214 48.184C23.8054 48.6 24.4053 49.184 24.8214 49.936C25.2534 50.688 25.4694 51.576 25.4694 52.6V54.928H17.2613V56.2C17.2613 57.24 17.5254 58.04 18.0534 58.6C18.5814 59.144 19.3333 59.416 20.3093 59.416C21.1413 59.416 21.8134 59.272 22.3253 58.984C22.8373 58.68 23.1493 58.232 23.2613 57.64H25.4214C25.2774 58.744 24.7334 59.624 23.7894 60.28C22.8614 60.92 21.7013 61.24 20.3093 61.24ZM23.3573 53.488V52.6C23.3573 51.56 23.0933 50.76 22.5653 50.2C22.0533 49.64 21.3013 49.36 20.3093 49.36C19.3333 49.36 18.5814 49.64 18.0534 50.2C17.5254 50.76 17.2613 51.56 17.2613 52.6V53.296H23.5254L23.3573 53.488Z" fill="black"/>
<path d="M29.708 61V47.8H31.868V50.32H32.324L31.868 50.824C31.868 49.784 32.18 48.984 32.804 48.424C33.428 47.848 34.292 47.56 35.396 47.56C36.724 47.56 37.78 47.968 38.564 48.784C39.348 49.6 39.74 50.712 39.74 52.12V61H37.58V52.36C37.58 51.416 37.324 50.696 36.812 50.2C36.316 49.688 35.636 49.432 34.772 49.432C33.876 49.432 33.164 49.704 32.636 50.248C32.124 50.792 31.868 51.576 31.868 52.6V61H29.708Z" fill="black"/>
<path d="M49.0666 61.24C47.5466 61.24 46.3306 60.792 45.4186 59.896C44.5066 58.984 44.0506 57.752 44.0506 56.2V47.8H46.2106V56.2C46.2106 57.192 46.4666 57.968 46.9786 58.528C47.4906 59.072 48.1866 59.344 49.0666 59.344C49.9626 59.344 50.6666 59.072 51.1786 58.528C51.7066 57.968 51.9706 57.192 51.9706 56.2V47.8H54.1306V56.2C54.1306 57.752 53.6666 58.984 52.7386 59.896C51.8106 60.792 50.5866 61.24 49.0666 61.24Z" fill="black"/>
</svg>
